<svg width="63" height="63" viewBox="0 0 63 63" fill="none" xmlns="http://www.w3.org/2000/svg">
<path d="M62.6083 31.3224C62.6125 35.36 61.8339 39.3602 60.3156 43.1014C58.7482 46.9529 56.6238 50.3726 52.8673 52.415C49.9972 53.947 46.7899 54.7381 43.5365 54.7164C39.4141 54.766 35.3873 53.4732 32.0641 51.0333L31.7316 50.7785C33.8377 48.1796 36.5536 46.1416 39.6375 44.8458C42.0447 43.8459 44.6073 43.2718 47.211 43.1489C48.5462 43.0981 49.8817 43.2436 51.1747 43.5807C52.4701 43.8916 53.7913 44.2197 55.091 44.0384C56.0441 43.9054 56.9589 43.5748 57.7768 43.0677C58.5947 42.5606 59.2977 41.8882 59.8406 41.0936C61.3687 36.6174 61.8226 31.8446 61.1656 27.1606C60.5087 22.4766 58.7593 18.0128 56.0587 14.1296C53.3582 10.2465 49.7822 7.05302 45.6196 4.80703C41.457 2.56104 36.8246 1.32555 32.0964 1.20035C27.3682 1.07515 22.6768 2.06375 18.4012 4.0863C14.1256 6.10885 10.3856 9.10864 7.48338 12.8434C4.58112 16.5781 2.59793 20.9431 1.694 25.5858C0.790066 30.2285 0.990738 35.0187 2.2798 39.5695C2.2798 39.6472 2.3273 39.7206 2.34889 39.7983C3.04837 42.022 5.29364 43.7146 7.72457 44.0513C9.01991 44.2327 10.3628 43.9045 11.6408 43.5937C12.9338 43.2565 14.2693 43.1111 15.6046 43.1619C18.2083 43.2847 20.7708 43.8589 23.178 44.8588C26.2622 46.1502 28.9795 48.1837 31.0883 50.7785L30.7558 51.0333C27.4326 53.4732 23.4058 54.766 19.2834 54.7164C15.8534 54.7397 12.4781 53.8564 9.49919 52.1559C5.02593 49.5393 2.63386 44.8674 1.23489 40.0099C-0.0118823 35.7036 -0.319149 31.1797 0.333882 26.7443C0.986913 22.309 2.58501 18.0656 5.02003 14.3014C7.45506 10.5371 10.6702 7.33983 14.4479 4.9258C18.2257 2.51176 22.4779 0.937313 26.9168 0.308981C31.3557 -0.319351 35.8778 0.0130915 40.1771 1.28382C44.4764 2.55454 48.4526 4.7339 51.8367 7.67444C55.2208 10.615 57.9338 14.2481 59.7922 18.328C61.6506 22.4078 62.6109 26.8393 62.6083 31.3224Z" fill="url(#paint0_radial_1665_57)"/>
<path d="M40.6781 26.3172C38.6754 26.2671 36.6812 26.0374 34.7195 25.6306C32.7387 25.2256 30.8001 24.6358 28.9293 23.869C27.9837 23.4761 27.0856 23.0486 26.2134 22.6557C25.3794 22.2692 24.523 21.9332 23.6486 21.6496C22.8658 21.3855 22.0479 21.24 21.222 21.2178C21.0277 21.2178 20.8334 21.2178 20.6434 21.2437C20.4535 21.2623 20.2647 21.2911 20.0778 21.3301C19.8921 21.3776 19.6935 21.4035 19.5122 21.4683C19.3308 21.533 19.1495 21.5805 18.9811 21.6583C18.292 21.9321 17.6779 22.3657 17.1892 22.9234C16.6632 23.5209 16.2519 24.2104 15.9759 24.9571C15.6765 25.7599 15.4778 26.5967 15.3844 27.4484C15.2918 28.3564 15.2629 29.2697 15.298 30.1816C15.3789 32.0888 15.6055 33.987 15.9759 35.8596C16.3213 37.7723 16.779 39.6938 17.1806 41.6497C16.1244 39.9428 15.213 38.1504 14.456 36.2913C13.6782 34.4043 13.1204 32.4339 12.7937 30.4191C12.3892 28.2654 12.4972 26.0467 13.1089 23.9424C13.4618 22.8131 14.0307 21.7631 14.7842 20.8508C15.5841 19.9059 16.5981 19.1657 17.7419 18.6919C18.0225 18.571 18.3118 18.4933 18.6054 18.394C18.8991 18.2947 19.184 18.2601 19.469 18.1954C20.06 18.0876 20.6603 18.0398 21.2609 18.0529C22.4101 18.1179 23.5414 18.3672 24.6115 18.7912C26.6625 19.5641 28.3507 20.6911 30.0002 21.6151C33.3119 23.4847 36.9518 24.9053 40.6781 26.3172Z" fill="url(#paint1_radial_1665_57)"/>
<path d="M32.8584 20.0949C34.2376 19.3758 35.7073 18.8457 37.228 18.5189C38.7845 18.1635 40.3848 18.0384 41.9776 18.1476C43.7206 18.2528 45.4051 18.8158 46.8611 19.7797C47.6267 20.3086 48.2908 20.9712 48.8214 21.7357C49.3439 22.4903 49.7445 23.3222 50.0088 24.2012C50.25 25.0383 50.3949 25.9003 50.4405 26.7703C50.4737 27.6022 50.439 28.4354 50.3369 29.2616C50.1299 30.8449 49.7476 32.4002 49.197 33.899C48.1326 36.8101 46.6252 39.5394 44.7281 41.9906C45.3973 38.9681 46.2307 36.1054 46.7661 33.2384C47.0438 31.8419 47.2255 30.4281 47.3101 29.0069C47.4042 27.7004 47.2816 26.3874 46.9474 25.1209C46.7894 24.5502 46.5478 24.006 46.2307 23.506C45.9219 23.0125 45.5321 22.5746 45.0778 22.2107C44.596 21.8257 44.0662 21.5049 43.5018 21.2564C42.8911 20.9902 42.2583 20.7778 41.6106 20.6217C40.2183 20.3027 38.7982 20.1205 37.3705 20.0777C35.8981 20.0086 34.3955 20.0345 32.8584 20.0949Z" fill="url(#paint2_radial_1665_57)"/>
<path d="M31.4589 52.0115C31.5711 52.1065 31.6791 52.1929 31.7957 52.2792C35.2037 54.7817 39.3339 56.1064 43.5617 56.053C46.5842 56.0704 49.5721 55.4094 52.3053 54.1186C52.3194 54.1135 52.3349 54.1131 52.3493 54.1175C52.3637 54.1219 52.3762 54.1309 52.385 54.1432C52.3938 54.1554 52.3984 54.1702 52.398 54.1852C52.3977 54.2003 52.3924 54.2148 52.383 54.2266C46.5405 59.6712 38.8394 62.6792 30.8534 62.6358C22.8674 62.5925 15.1994 59.5011 9.41642 53.9934C9.40703 53.9816 9.40175 53.9671 9.40139 53.952C9.40102 53.937 9.40559 53.9222 9.41439 53.91C9.42319 53.8978 9.43574 53.8888 9.45014 53.8843C9.46454 53.8799 9.47999 53.8803 9.49414 53.8855C12.3469 55.3239 15.5006 56.0638 18.6954 56.0444C22.9238 56.0971 27.0542 54.7708 30.4614 52.2663C30.578 52.1799 30.6903 52.0936 30.7982 51.9986L31.1307 51.7266L31.4589 52.0115Z" fill="url(#paint3_radial_1665_57)"/>
<path d="M32.1633 44.9617C32.1677 44.9825 32.1777 45.0017 32.1922 45.0172C32.2067 45.0327 32.2252 45.044 32.2456 45.0498C32.2661 45.0555 32.2877 45.0556 32.3082 45.05C32.3287 45.0444 32.3473 45.0332 32.3619 45.0178C34.1472 42.9928 35.1166 40.3769 35.0821 37.6775C35.0821 34.1887 33.5795 31.1188 31.304 29.3398C29.0286 31.1101 27.5216 34.1672 27.5216 37.656C27.4826 40.3688 28.4572 42.9986 30.2548 45.0308C30.2683 45.0455 30.2856 45.0563 30.3048 45.0618C30.324 45.0673 30.3444 45.0674 30.3636 45.062C30.3828 45.0567 30.4002 45.046 30.4138 45.0314C30.4274 45.0167 30.4366 44.9986 30.4405 44.979C30.6736 43.7311 30.9802 40.903 31.304 34.7501C31.6236 40.877 31.9258 43.7052 32.1633 44.9617Z" fill="url(#paint4_radial_1665_57)"/>
<path d="M38.9343 42.6527C38.8091 42.8945 36.6977 46.7849 34.1847 48.3695C35.3681 48.3082 36.5248 47.9954 37.5777 47.452C38.6307 46.9085 39.5557 46.1468 40.2912 45.2177C41.0266 44.2886 41.5555 43.2134 41.8427 42.0638C42.13 40.9142 42.1688 39.7166 41.9568 38.5508C40.7653 38.5831 39.5964 38.8836 38.5371 39.4301C37.4778 39.9766 36.5553 40.7549 35.8384 41.7071C34.7479 43.0614 34.1051 44.7211 33.999 46.4567C34.8626 46.2106 36.7149 45.3859 38.9472 42.6613" fill="url(#paint5_radial_1665_57)"/>
<path d="M23.6744 42.664C25.911 45.3886 27.7418 46.2133 28.6269 46.4594C28.5208 44.7238 27.8781 43.0641 26.7875 41.7098C26.0684 40.7598 25.1446 39.984 24.0847 39.4398C23.0248 38.8957 21.8559 38.5972 20.6649 38.5664C20.4528 39.7322 20.4917 40.9298 20.7789 42.0795C21.0661 43.2291 21.595 44.3043 22.3305 45.2334C23.0659 46.1625 23.9909 46.9241 25.0439 47.4676C26.0969 48.0111 27.2536 48.3239 28.4369 48.3851C25.9197 46.8005 23.8083 42.9101 23.6874 42.6683" fill="url(#paint6_radial_1665_57)"/>
<defs>
<radialGradient id="paint0_radial_1665_57" cx="0" cy="0" r="1" gradientUnits="userSpaceOnUse" gradientTransform="translate(33.2731 29.863) scale(34.9095)">
<stop stop-color="#F4C12F"/>
<stop offset="0.01" stop-color="#976130"/>
<stop offset="0.5" stop-color="#DCB15F"/>
<stop offset="1" stop-color="#BE8845"/>
</radialGradient>
<radialGradient id="paint1_radial_1665_57" cx="0" cy="0" r="1" gradientUnits="userSpaceOnUse" gradientTransform="translate(33.2731 29.8664) scale(34.9052 34.9052)">
<stop stop-color="#F4C12F"/>
<stop offset="0.01" stop-color="#976130"/>
<stop offset="0.5" stop-color="#DCB15F"/>
<stop offset="1" stop-color="#BE8845"/>
</radialGradient>
<radialGradient id="paint2_radial_1665_57" cx="0" cy="0" r="1" gradientUnits="userSpaceOnUse" gradientTransform="translate(33.2729 29.8618) scale(34.9095)">
<stop stop-color="#F4C12F"/>
<stop offset="0.01" stop-color="#976130"/>
<stop offset="0.5" stop-color="#DCB15F"/>
<stop offset="1" stop-color="#BE8845"/>
</radialGradient>
<radialGradient id="paint3_radial_1665_57" cx="0" cy="0" r="1" gradientUnits="userSpaceOnUse" gradientTransform="translate(33.2723 29.8612) scale(34.9095 34.9095)">
<stop stop-color="#F4C12F"/>
<stop offset="0.01" stop-color="#976130"/>
<stop offset="0.5" stop-color="#DCB15F"/>
<stop offset="1" stop-color="#BE8845"/>
</radialGradient>
<radialGradient id="paint4_radial_1665_57" cx="0" cy="0" r="1" gradientUnits="userSpaceOnUse" gradientTransform="translate(33.273 29.8623) scale(34.9095 34.9095)">
<stop stop-color="#F4C12F"/>
<stop offset="0.01" stop-color="#976130"/>
<stop offset="0.5" stop-color="#DCB15F"/>
<stop offset="1" stop-color="#BE8845"/>
</radialGradient>
<radialGradient id="paint5_radial_1665_57" cx="0" cy="0" r="1" gradientUnits="userSpaceOnUse" gradientTransform="translate(33.2736 29.8633) scale(34.9095)">
<stop stop-color="#F4C12F"/>
<stop offset="0.01" stop-color="#976130"/>
<stop offset="0.5" stop-color="#DCB15F"/>
<stop offset="1" stop-color="#BE8845"/>
</radialGradient>
<radialGradient id="paint6_radial_1665_57" cx="0" cy="0" r="1" gradientUnits="userSpaceOnUse" gradientTransform="translate(33.2729 29.8617) scale(34.9095 34.9095)">
<stop stop-color="#F4C12F"/>
<stop offset="0.01" stop-color="#976130"/>
<stop offset="0.5" stop-color="#DCB15F"/>
<stop offset="1" stop-color="#BE8845"/>
</radialGradient>
</defs>
</svg>
